<svg xmlns="http://www.w3.org/2000/svg" width="77" height="17" viewBox="0 0 76.234 16.79" fill="currentColor">
  <path d="M16.576 16.616H0l.833-4.418H17.65z"/>
  <path d="m0 16.616 2.314-12.27h4.448l-2.316 12.27zM8.27 0h16.936l-.832 4.416H7.544z"/>
  <path d="m25.206 0-2.314 12.27-4.512.002L20.76 0zM30.857 14.816 33.09 2.217h2.7l-1.82 10.276h4.968l-.415 2.321h-7.666zM41.025 6.328h2.556l-1.639 8.488h-2.537l1.619-8.488zm.235-2.51c0-.882.701-1.547 1.566-1.547.81 0 1.367.54 1.367 1.315 0 .882-.702 1.547-1.566 1.547-.81 0-1.367-.54-1.367-1.314M53.696 9.488c0 3.077-2.232 5.435-4.933 5.435-1.458 0-2.268-.559-2.735-1.296l-.45 1.189h-2.232L45.56 2.217h2.538l-.738 4.265c.63-.63 1.44-1.025 2.555-1.025 2.214 0 3.78 1.71 3.78 4.03m-2.574.198c0-1.422-.756-2.16-1.87-2.16-1.657 0-2.7 1.547-2.7 3.168 0 1.421.774 2.16 1.89 2.16 1.638 0 2.682-1.548 2.682-3.168zM53.929 2.217h9.934l-.395 2.321H59.85L58.03 14.814h-2.699l1.819-10.276h-3.618zM72.934 2.217h2.879l-6.497 12.599h-3.222L64.042 2.217h2.772l1.368 9.322z"/>
</svg>
